<svg width="479" height="170" viewBox="0 0 479 170" fill="none" xmlns="http://www.w3.org/2000/svg">
<path d="M0 20C0 8.95431 8.95431 0 20 0H459C470.046 0 479 8.95431 479 20V74.1312C479 82.7073 473.532 90.3288 465.409 93.0767L244.449 167.819C240.267 169.233 235.736 169.224 231.56 167.794L13.5192 93.1099C5.43247 90.34 0 82.737 0 74.189V20Z" fill="#D60505"/>
<path d="M165.15 81V46.85H172.05V75.15H185.55V81H165.15ZM199.671 81.55C196.838 81.55 194.554 81.0833 192.821 80.15C191.121 79.2167 189.888 77.7833 189.121 75.85C188.354 73.8833 187.971 71.35 187.971 68.25C187.971 65.25 188.371 62.8167 189.171 60.95C189.971 59.05 191.238 57.65 192.971 56.75C194.704 55.8167 196.938 55.35 199.671 55.35C202.438 55.35 204.671 55.8167 206.371 56.75C208.104 57.65 209.371 59.05 210.171 60.95C211.004 62.8167 211.421 65.25 211.421 68.25C211.421 71.35 211.038 73.8833 210.271 75.85C209.504 77.7833 208.254 79.2167 206.521 80.15C204.821 81.0833 202.538 81.55 199.671 81.55ZM199.671 76.05C201.071 76.05 202.121 75.8 202.821 75.3C203.521 74.7667 203.988 73.9333 204.221 72.8C204.488 71.6333 204.621 70.1167 204.621 68.25C204.621 66.4167 204.471 64.9667 204.171 63.9C203.871 62.8 203.371 62.0167 202.671 61.55C201.971 61.0833 200.971 60.85 199.671 60.85C198.404 60.85 197.404 61.0833 196.671 61.55C195.971 62.0167 195.471 62.8 195.171 63.9C194.871 64.9667 194.721 66.4167 194.721 68.25C194.721 70.1167 194.838 71.6333 195.071 72.8C195.338 73.9333 195.821 74.7667 196.521 75.3C197.221 75.8 198.271 76.05 199.671 76.05ZM227.021 92.45C224.354 92.45 222.121 92.25 220.321 91.85C218.554 91.45 217.221 90.7167 216.321 89.65C215.421 88.6167 214.971 87.1167 214.971 85.15C214.971 84.2833 215.087 83.5 215.321 82.8C215.587 82.1333 215.987 81.5 216.521 80.9C217.087 80.3 217.787 79.6833 218.621 79.05C218.154 78.7167 217.771 78.2333 217.471 77.6C217.204 76.9333 217.071 76.2167 217.071 75.45C217.071 75.05 217.304 74.4667 217.771 73.7C218.271 72.9 218.754 72.2 219.221 71.6C218.554 71.3 217.921 70.8667 217.321 70.3C216.721 69.7 216.221 68.9 215.821 67.9C215.454 66.9 215.271 65.6167 215.271 64.05C215.271 60.8833 216.171 58.65 217.971 57.35C219.804 56.0167 222.404 55.35 225.771 55.35C226.637 55.35 227.571 55.4167 228.571 55.55C229.571 55.6833 230.371 55.8167 230.971 55.95L239.121 55.8V60.3L235.321 60.25C235.621 60.65 235.887 61.1667 236.121 61.8C236.387 62.4 236.521 63.15 236.521 64.05C236.521 66.35 236.121 68.1333 235.321 69.4C234.554 70.6667 233.387 71.55 231.821 72.05C230.254 72.5167 228.271 72.75 225.871 72.75C225.604 72.75 225.237 72.7333 224.771 72.7C224.304 72.6333 223.921 72.5833 223.621 72.55C223.487 72.8833 223.354 73.2667 223.221 73.7C223.087 74.1 223.021 74.3833 223.021 74.55C223.021 74.9833 223.154 75.3167 223.421 75.55C223.721 75.7833 224.304 75.95 225.171 76.05C226.071 76.1167 227.421 76.15 229.221 76.15C231.587 76.15 233.471 76.3667 234.871 76.8C236.304 77.2333 237.321 78 237.921 79.1C238.521 80.2 238.821 81.75 238.821 83.75C238.821 86.7167 237.771 88.9 235.671 90.3C233.604 91.7333 230.721 92.45 227.021 92.45ZM226.671 87.5C228.737 87.5 230.221 87.25 231.121 86.75C232.054 86.2833 232.521 85.5 232.521 84.4C232.521 83.5333 232.354 82.9 232.021 82.5C231.721 82.1 231.204 81.8333 230.471 81.7C229.737 81.6 228.737 81.55 227.471 81.55C227.137 81.55 226.737 81.5333 226.271 81.5C225.804 81.5 225.321 81.4833 224.821 81.45C224.354 81.45 223.921 81.4333 223.521 81.4C223.154 81.3667 222.887 81.35 222.721 81.35C221.987 81.85 221.487 82.3 221.221 82.7C220.954 83.1333 220.821 83.7 220.821 84.4C220.821 85.1667 221.004 85.7667 221.371 86.2C221.737 86.6667 222.337 87 223.171 87.2C224.037 87.4 225.204 87.5 226.671 87.5ZM225.821 68.05C227.354 68.05 228.437 67.75 229.071 67.15C229.737 66.5167 230.071 65.4833 230.071 64.05C230.071 62.6167 229.737 61.5833 229.071 60.95C228.437 60.3167 227.354 60 225.821 60C224.354 60 223.287 60.3167 222.621 60.95C221.987 61.5833 221.671 62.6167 221.671 64.05C221.671 65.4833 221.987 66.5167 222.621 67.15C223.287 67.75 224.354 68.05 225.821 68.05ZM242.631 81V55.9H249.281V81H242.631ZM242.631 51.9V46.2H249.331V51.9H242.631ZM254.838 81V55.9H261.488V57.5C262.021 57.1667 262.671 56.85 263.438 56.55C264.205 56.2167 265.005 55.9333 265.838 55.7C266.705 55.4667 267.538 55.35 268.338 55.35C270.671 55.35 272.471 55.7667 273.738 56.6C275.038 57.4 275.955 58.7333 276.488 60.6C277.021 62.4333 277.288 64.9 277.288 68V81H270.588V68.35C270.588 66.6167 270.488 65.2333 270.288 64.2C270.088 63.1333 269.705 62.3667 269.138 61.9C268.571 61.4333 267.738 61.2 266.638 61.2C266.038 61.2 265.405 61.2667 264.738 61.4C264.105 61.5 263.488 61.65 262.888 61.85C262.321 62.05 261.855 62.25 261.488 62.45V81H254.838ZM293.763 81V46.85H300.663V81H293.763ZM306.596 81V55.9H313.246V57.5C313.779 57.1667 314.429 56.85 315.196 56.55C315.962 56.2167 316.762 55.9333 317.596 55.7C318.462 55.4667 319.296 55.35 320.096 55.35C322.429 55.35 324.229 55.7667 325.496 56.6C326.796 57.4 327.712 58.7333 328.246 60.6C328.779 62.4333 329.046 64.9 329.046 68V81H322.346V68.35C322.346 66.6167 322.246 65.2333 322.046 64.2C321.846 63.1333 321.462 62.3667 320.896 61.9C320.329 61.4333 319.496 61.2 318.396 61.2C317.796 61.2 317.162 61.2667 316.496 61.4C315.862 61.5 315.246 61.65 314.646 61.85C314.079 62.05 313.612 62.25 313.246 62.45V81H306.596ZM193.077 133.55C190.477 133.55 188.511 132.9 187.177 131.6C185.877 130.267 185.227 128.267 185.227 125.6C185.227 123.733 185.561 122.283 186.227 121.25C186.894 120.183 187.877 119.417 189.177 118.95C190.511 118.45 192.127 118.15 194.027 118.05L200.127 117.5V116C200.127 114.8 199.827 113.967 199.227 113.5C198.627 113 197.744 112.75 196.577 112.75C195.644 112.75 194.561 112.783 193.327 112.85C192.127 112.917 190.927 113 189.727 113.1C188.561 113.2 187.544 113.3 186.677 113.4L186.477 108.7C187.344 108.5 188.377 108.3 189.577 108.1C190.811 107.867 192.094 107.683 193.427 107.55C194.761 107.417 195.994 107.35 197.127 107.35C199.261 107.35 201.044 107.617 202.477 108.15C203.911 108.683 204.994 109.567 205.727 110.8C206.461 112 206.827 113.633 206.827 115.7V127.15C206.894 127.617 207.144 127.983 207.577 128.25C208.011 128.483 208.511 128.65 209.077 128.75L208.927 133.35C208.127 133.383 207.344 133.4 206.577 133.4C205.811 133.4 205.161 133.35 204.627 133.25C203.861 133.15 203.194 132.95 202.627 132.65C202.094 132.35 201.661 132.033 201.327 131.7C200.794 131.933 200.077 132.2 199.177 132.5C198.277 132.8 197.294 133.05 196.227 133.25C195.194 133.45 194.144 133.55 193.077 133.55ZM194.677 128.6C195.311 128.6 195.977 128.533 196.677 128.4C197.377 128.267 198.027 128.117 198.627 127.95C199.261 127.75 199.761 127.567 200.127 127.4V121.65L195.027 122.1C193.927 122.2 193.127 122.533 192.627 123.1C192.161 123.633 191.927 124.4 191.927 125.4C191.927 126.4 192.144 127.183 192.577 127.75C193.044 128.317 193.744 128.6 194.677 128.6ZM221.149 133.55C219.949 133.55 218.849 133.4 217.849 133.1C216.849 132.833 215.966 132.4 215.199 131.8C214.466 131.167 213.833 130.35 213.299 129.35C212.799 128.35 212.416 127.133 212.149 125.7C211.883 124.233 211.749 122.533 211.749 120.6C211.749 117.733 212.099 115.317 212.799 113.35C213.533 111.383 214.683 109.9 216.249 108.9C217.816 107.867 219.899 107.35 222.499 107.35C223.266 107.35 224.166 107.417 225.199 107.55C226.266 107.65 227.116 107.75 227.749 107.85V97.65H234.449V133H227.849L227.799 131.55C227.333 131.817 226.716 132.117 225.949 132.45C225.216 132.75 224.433 133 223.599 133.2C222.766 133.433 221.949 133.55 221.149 133.55ZM222.849 127.95C223.449 127.95 224.049 127.883 224.649 127.75C225.283 127.617 225.866 127.467 226.399 127.3C226.966 127.1 227.416 126.917 227.749 126.75V113.3C227.449 113.233 227.049 113.183 226.549 113.15C226.049 113.083 225.533 113.033 224.999 113C224.466 112.933 223.983 112.9 223.549 112.9C222.249 112.9 221.233 113.2 220.499 113.8C219.799 114.4 219.299 115.283 218.999 116.45C218.699 117.583 218.549 118.967 218.549 120.6C218.549 122.033 218.649 123.233 218.849 124.2C219.049 125.133 219.333 125.883 219.699 126.45C220.099 126.983 220.566 127.367 221.099 127.6C221.633 127.833 222.216 127.95 222.849 127.95ZM239.945 133V107.9H246.595V109.5C247.362 109.033 248.395 108.567 249.695 108.1C250.995 107.6 252.229 107.35 253.395 107.35C254.929 107.35 256.179 107.567 257.145 108C258.112 108.4 258.912 109 259.545 109.8C260.145 109.433 260.895 109.067 261.795 108.7C262.695 108.333 263.679 108.017 264.745 107.75C265.812 107.483 266.845 107.35 267.845 107.35C270.312 107.35 272.195 107.783 273.495 108.65C274.795 109.517 275.695 110.883 276.195 112.75C276.695 114.583 276.945 116.983 276.945 119.95V133H270.295V120.55C270.295 118.817 270.195 117.417 269.995 116.35C269.829 115.25 269.462 114.45 268.895 113.95C268.362 113.45 267.545 113.2 266.445 113.2C265.479 113.2 264.529 113.333 263.595 113.6C262.662 113.867 261.929 114.133 261.395 114.4C261.562 115.1 261.679 116 261.745 117.1C261.845 118.2 261.895 119.35 261.895 120.55V133H255.245V120.65C255.245 118.883 255.145 117.45 254.945 116.35C254.779 115.25 254.412 114.45 253.845 113.95C253.279 113.45 252.462 113.2 251.395 113.2C250.462 113.2 249.545 113.333 248.645 113.6C247.779 113.867 247.095 114.133 246.595 114.4V133H239.945ZM282.23 133V107.9H288.88V133H282.23ZM282.23 103.9V98.2H288.93V103.9H282.23ZM294.438 133V107.9H301.088V109.5C301.621 109.167 302.271 108.85 303.038 108.55C303.804 108.217 304.604 107.933 305.438 107.7C306.304 107.467 307.138 107.35 307.938 107.35C310.271 107.35 312.071 107.767 313.338 108.6C314.638 109.4 315.554 110.733 316.088 112.6C316.621 114.433 316.888 116.9 316.888 120V133H310.188V120.35C310.188 118.617 310.088 117.233 309.888 116.2C309.688 115.133 309.304 114.367 308.738 113.9C308.171 113.433 307.338 113.2 306.238 113.2C305.638 113.2 305.004 113.267 304.338 113.4C303.704 113.5 303.088 113.65 302.488 113.85C301.921 114.05 301.454 114.25 301.088 114.45V133H294.438Z" fill="black"/>
</svg>
