<svg width="38" height="41" viewBox="0 0 38 41" fill="none" xmlns="http://www.w3.org/2000/svg">
<path d="M32.5416 14.7499C33.2457 14.7499 33.9249 14.6499 34.5687 14.4645C34.6062 14.9041 34.6249 15.3499 34.6249 15.7978V24.1312L37.5791 30.7145C37.7134 31.0156 37.7703 31.3455 37.7448 31.6742C37.7192 32.0029 37.612 32.32 37.4327 32.5967C37.2535 32.8734 37.008 33.101 36.7185 33.2587C36.4289 33.4165 36.1046 33.4994 35.7749 33.4999H2.23324C1.9031 33.4999 1.57821 33.4172 1.28817 33.2595C0.998129 33.1018 0.752143 32.8741 0.572612 32.597C0.393082 32.32 0.285711 32.0024 0.260277 31.6732C0.234843 31.3441 0.292154 31.0138 0.426991 30.7124L3.37491 24.1291V15.7708L3.38532 15.2499C3.48087 12.5172 4.2919 9.85733 5.73738 7.53619C7.18286 5.21505 9.21216 3.31389 11.6225 2.02267C14.0329 0.731447 16.7399 0.0953861 19.4731 0.17804C22.2063 0.260693 24.8699 1.05917 27.1978 2.49368C26.2312 3.53355 25.5891 4.83303 25.3504 6.23262C25.1118 7.63221 25.2869 9.07102 25.8544 10.3725C26.4218 11.674 27.3569 12.7815 28.5448 13.5591C29.7327 14.3367 31.1218 14.7506 32.5416 14.7499ZM25.1624 35.5895C24.9161 37.0457 24.1621 38.3677 23.0341 39.321C21.906 40.2743 20.4768 40.7974 18.9999 40.7974C17.523 40.7974 16.0938 40.2743 14.9657 39.321C13.8377 38.3677 13.0837 37.0457 12.8374 35.5895H25.1624ZM32.5416 12.6666C33.9229 12.6666 35.2477 12.1179 36.2244 11.1411C37.2012 10.1644 37.7499 8.8396 37.7499 7.45826C37.7499 6.07692 37.2012 4.75216 36.2244 3.77541C35.2477 2.79866 33.9229 2.24993 32.5416 2.24993C31.1602 2.24993 29.8355 2.79866 28.8587 3.77541C27.882 4.75216 27.3332 6.07692 27.3332 7.45826C27.3332 8.8396 27.882 10.1644 28.8587 11.1411C29.8355 12.1179 31.1602 12.6666 32.5416 12.6666Z" fill="black"/>
</svg>
