<svg width="158" height="132" viewBox="0 0 158 132" fill="none" xmlns="http://www.w3.org/2000/svg">
<path d="M133.312 33.5156H112.328L107.329 21.8109C106.984 21.01 106.351 20.3177 105.517 19.8286C104.683 19.3395 103.688 19.0774 102.669 19.0781H55.3309C53.2479 19.0781 51.3809 20.1738 50.6865 21.8109L45.6719 33.5156H24.6875C17.8676 33.5156 12.3438 38.1305 12.3438 43.8281V102.609C12.3438 108.307 17.8676 112.922 24.6875 112.922H133.312C140.132 112.922 145.656 108.307 145.656 102.609V43.8281C145.656 38.1305 140.132 33.5156 133.312 33.5156ZM79 92.2969C65.3602 92.2969 54.3125 83.0672 54.3125 71.6719C54.3125 60.2766 65.3602 51.0469 79 51.0469C92.6398 51.0469 103.688 60.2766 103.688 71.6719C103.688 83.0672 92.6398 92.2969 79 92.2969ZM64.1875 71.6719C64.1875 74.9539 65.7481 78.1016 68.526 80.4223C71.3039 82.7431 75.0715 84.0469 79 84.0469C82.9285 84.0469 86.6961 82.7431 89.474 80.4223C92.2519 78.1016 93.8125 74.9539 93.8125 71.6719C93.8125 68.3898 92.2519 65.2422 89.474 62.9214C86.6961 60.6007 82.9285 59.2969 79 59.2969C75.0715 59.2969 71.3039 60.6007 68.526 62.9214C65.7481 65.2422 64.1875 68.3898 64.1875 71.6719Z" fill="black"/>
</svg>
