<svg width="46" height="30" viewBox="0 0 46 30" fill="none" xmlns="http://www.w3.org/2000/svg">
<rect width="46" height="30" rx="10" fill="#FF9E9E" fill-opacity="0.3"/>
<path d="M8.078 19V9.13H12.39C13.426 9.13 14.2287 9.35867 14.798 9.816C15.3673 10.264 15.652 10.8893 15.652 11.692C15.652 12.224 15.5167 12.6813 15.246 13.064C14.9753 13.4467 14.602 13.7267 14.126 13.904C14.686 14.0627 15.12 14.3427 15.428 14.744C15.7453 15.136 15.904 15.6353 15.904 16.242C15.904 17.1193 15.6053 17.8007 15.008 18.286C14.42 18.762 13.5987 19 12.544 19H8.078ZM9.8 13.316H12.082C13.3047 13.316 13.916 12.8447 13.916 11.902C13.916 10.9593 13.3047 10.488 12.082 10.488H9.8V13.316ZM9.8 17.642H12.32C13.552 17.642 14.168 17.1473 14.168 16.158C14.168 15.1687 13.552 14.674 12.32 14.674H9.8V17.642ZM20.1947 18.44V15.598H17.4227V14.366H20.1947V11.608H21.4827V14.366H24.2547V15.598H21.4827V18.44H20.1947Z" fill="#CF3E3E"/>
</svg>
