<?xml version="1.0" standalone="no"?>
<!DOCTYPE svg PUBLIC "-//W3C//DTD SVG 20010904//EN"
 "http://www.w3.org/TR/2001/REC-SVG-20010904/DTD/svg10.dtd">
<svg version="1.0" xmlns="http://www.w3.org/2000/svg"
 width="1108.000000pt" height="480.000000pt" viewBox="0 0 1108.000000 480.000000"
 preserveAspectRatio="xMidYMid meet">

<g transform="translate(0.000000,480.000000) scale(0.100000,-0.100000)"
fill="#000000" stroke="none">
<path d="M4585 3968 c3 -24 -8 -101 -20 -149 -5 -22 0 -32 27 -58 18 -17 37
-31 42 -31 6 0 1 7 -10 15 -18 15 -18 15 6 13 14 -2 25 -9 25 -17 0 -8 27 -22
65 -34 56 -17 72 -18 119 -8 49 9 58 9 85 -9 82 -52 109 -62 149 -57 22 3 50
1 62 -5 29 -13 87 16 175 87 73 59 195 140 234 155 37 14 76 -4 109 -51 22
-29 26 -43 18 -53 -6 -7 -55 -28 -108 -46 -54 -18 -115 -44 -136 -57 -20 -13
-73 -41 -117 -63 -43 -22 -82 -45 -85 -50 -8 -13 49 12 135 61 118 66 122 67
190 83 126 28 153 29 178 6 12 -11 22 -27 22 -35 0 -7 16 -31 36 -52 56 -58
129 -232 107 -254 -6 -6 -37 -12 -69 -14 -71 -4 -95 -12 -87 -31 4 -10 -3 -14
-26 -14 -17 0 -31 -4 -31 -10 0 -11 -59 -80 -69 -80 -12 0 -31 55 -31 92 0 28
-10 51 -41 92 -48 64 -77 86 -115 86 -22 0 -25 -3 -21 -22 11 -40 -9 -49 -61
-27 -40 18 -55 19 -102 11 -30 -6 -80 -9 -110 -7 -49 2 -58 6 -86 39 -17 19
-48 50 -70 67 l-39 32 30 -5 c17 -3 39 -9 50 -13 18 -7 18 -6 5 8 -8 9 -34 19
-57 21 -48 6 -73 -11 -73 -49 0 -32 -53 -91 -93 -104 -57 -17 -106 -22 -124
-12 -10 5 -38 14 -63 21 -25 7 -72 20 -105 30 -33 11 -82 23 -110 29 -115 22
-292 105 -319 149 -4 8 -33 25 -64 39 -31 13 -73 38 -93 54 -20 16 -40 29 -45
29 -4 0 -19 11 -33 23 -15 13 -51 34 -81 46 -63 26 -89 46 -101 79 -7 17 -16
22 -45 22 -31 0 -35 -3 -29 -17 4 -10 10 -31 13 -47 5 -28 4 -29 -33 -22 -33
7 -111 48 -125 68 -3 4 -12 3 -19 -1 -11 -7 -5 -20 23 -57 29 -38 36 -55 32
-76 -5 -25 -2 -28 34 -38 21 -6 48 -23 60 -37 20 -26 20 -28 4 -40 -22 -16
-139 -7 -170 14 -21 13 -49 14 -70 1 -6 -4 -48 -5 -95 -3 -61 2 -90 -1 -104
-11 -19 -14 -19 -14 1 -28 26 -20 12 -30 -30 -22 -25 5 -34 11 -30 21 4 9 -1
18 -11 21 -13 6 -14 9 -3 16 10 8 10 9 -2 5 -20 -5 -26 -37 -8 -48 9 -6 2 -9
-19 -9 -18 0 -33 5 -33 10 0 6 -22 10 -48 10 -26 0 -53 5 -59 11 -5 5 -43 13
-84 15 -40 3 -76 6 -79 6 -23 2 -71 -5 -57 -9 23 -6 12 -23 -16 -23 -13 0 -33
-7 -46 -16 -19 -14 -31 -15 -76 -6 -78 16 -235 -4 -235 -29 0 -10 -4 -20 -9
-24 -11 -6 -81 25 -81 36 0 9 -57 29 -82 29 -20 0 -41 -41 -32 -63 3 -8 27
-24 54 -36 28 -13 50 -27 50 -32 0 -14 61 -67 90 -78 62 -23 249 -43 347 -37
54 4 181 9 283 11 103 3 202 10 224 17 33 10 40 10 51 -5 11 -15 21 -16 81 -7
111 16 141 13 147 -11 5 -17 11 -20 34 -17 15 3 36 9 47 13 16 7 17 5 11 -15
-6 -20 -5 -22 24 -15 30 6 31 5 25 -19 -6 -24 -5 -25 30 -15 20 6 58 9 84 7
45 -3 47 -4 50 -36 2 -22 -3 -41 -14 -53 -25 -27 -11 -34 28 -14 61 32 68 35
91 35 21 0 34 -8 84 -50 22 -18 61 -29 85 -24 13 3 33 8 45 11 24 6 40 -23 68
-120 15 -57 15 -60 -4 -93 -12 -19 -21 -42 -21 -51 0 -9 -10 -31 -21 -50 -24
-39 -19 -52 14 -34 18 10 34 10 63 2 85 -23 130 -83 144 -194 12 -89 12 -116
2 -100 -7 10 -104 33 -144 33 -10 0 -18 -7 -18 -16 0 -13 -6 -15 -27 -9 -16 3
-29 11 -31 16 -2 5 -12 9 -23 9 -11 0 -38 9 -61 21 -39 20 -40 22 -34 61 4 22
13 53 22 69 19 37 8 37 -39 -2 -45 -37 -88 -41 -122 -9 -22 20 -29 22 -82 14
-72 -10 -161 -7 -190 8 -16 8 -23 20 -23 42 l0 30 -27 -32 c-30 -35 -82 -55
-104 -41 -8 5 -35 9 -61 9 -26 0 -50 5 -53 11 -5 7 -38 8 -101 4 -75 -6 -99
-4 -117 8 -15 10 -29 12 -39 6 -10 -6 -27 -5 -43 1 -14 5 -41 10 -60 10 -28 0
-32 3 -28 20 6 21 -11 28 -23 9 -4 -7 -44 -10 -113 -8 -120 3 -131 5 -131 26
0 9 -6 12 -18 9 -11 -4 -28 2 -42 14 -12 11 -39 23 -59 26 -20 4 -45 13 -56
20 -11 8 -29 14 -42 14 -12 0 -24 4 -27 9 -3 5 -30 15 -58 21 -29 7 -58 16
-64 21 -17 14 -153 31 -236 30 -46 -1 -78 3 -78 9 0 5 -7 10 -15 10 -8 0 -16
6 -16 13 -1 6 -3 21 -4 32 -1 11 -2 27 -3 35 -3 23 -56 52 -70 38 -14 -14
-120 29 -133 53 -7 15 -19 17 -66 13 -32 -3 -80 -10 -108 -16 -27 -7 -60 -11
-72 -10 -12 1 -25 -3 -28 -8 -8 -13 -62 -13 -70 0 -3 5 -18 9 -33 8 -15 0 -56
1 -92 2 -36 1 -81 -1 -100 -5 -33 -6 -36 -4 -47 25 -12 31 -12 31 -42 16 -16
-9 -48 -16 -71 -16 -22 0 -40 -4 -40 -10 0 -5 -15 -10 -34 -10 -19 0 -47 -5
-63 -11 -15 -6 -29 -6 -31 -1 -1 5 -23 5 -50 1 -76 -13 -162 -11 -164 4 0 6
-2 19 -2 27 -1 8 -8 15 -16 16 -8 0 -23 4 -33 9 -26 11 -48 -13 -24 -26 26
-15 20 -29 -14 -29 -27 0 -29 3 -24 21 7 20 5 22 -29 16 -19 -3 -45 -15 -57
-26 -20 -18 -92 -29 -209 -30 -14 0 -56 -5 -94 -10 -38 -6 -73 -8 -77 -5 -5 3
-9 -78 -9 -180 0 -163 2 -186 16 -186 9 0 88 11 177 25 537 81 886 108 1405
106 382 -1 454 -8 617 -57 50 -14 106 -30 125 -34 19 -4 64 -15 100 -23 111
-26 261 -56 360 -72 85 -14 525 -45 575 -42 46 4 233 -15 270 -28 53 -17 153
-35 196 -35 37 0 82 -16 261 -93 139 -60 191 -86 265 -136 33 -22 79 -49 100
-61 22 -11 82 -66 134 -122 201 -217 473 -397 602 -398 80 0 198 72 382 235
39 34 84 70 102 79 17 9 35 21 39 27 4 8 3 9 -4 5 -20 -12 -13 7 12 33 70 74
291 388 340 481 91 177 146 363 162 555 9 112 -10 85 -24 -35 -7 -52 -20 -123
-31 -158 -19 -62 -69 -158 -77 -149 -3 2 7 62 21 131 28 142 29 149 16 142
-13 -8 -20 28 -12 65 6 28 8 30 20 16 7 -9 10 -21 6 -27 -3 -5 -3 -10 2 -10
10 0 43 134 43 173 0 15 5 27 10 27 6 0 10 -5 10 -12 0 -6 2 -9 5 -6 5 5 -19
151 -31 183 -23 67 -90 189 -124 227 -50 57 -157 122 -237 142 -121 32 -270
16 -358 -37 -110 -66 -147 -93 -190 -137 -27 -28 -64 -60 -82 -71 l-31 -20
-38 26 c-46 32 -101 48 -234 69 -58 10 -122 22 -142 28 -48 14 -92 55 -118
111 -12 25 -29 52 -39 61 -17 16 -18 15 -16 -6z m1293 -111 c46 -23 89 -48 95
-56 21 -25 15 -56 -7 -34 -3 4 -14 7 -24 8 -9 1 -31 5 -48 9 -22 5 -34 3 -43
-8 -11 -12 -5 -18 33 -36 45 -20 55 -33 36 -45 -12 -7 -1 -35 14 -35 6 0 18
-20 25 -44 15 -51 25 -57 93 -64 10 -1 23 -12 29 -24 14 -26 19 -198 6 -198
-5 0 -36 14 -68 31 -62 33 -58 27 -94 154 -26 95 -61 181 -82 203 -7 7 -13 24
-13 38 0 16 -11 31 -38 49 -45 30 -86 81 -76 96 11 18 74 1 162 -44z m-2588
-196 c2 -1 -1 -6 -7 -12 -13 -13 -63 -4 -63 11 0 8 19 8 70 1z m-80 -52 c0 -5
-4 -9 -10 -9 -5 0 -10 7 -10 16 0 8 5 12 10 9 6 -3 10 -10 10 -16z m2958 -233
c3 -71 1 -97 -7 -92 -6 4 -11 16 -11 27 0 10 -4 19 -10 19 -6 0 -10 39 -10 97
0 95 0 97 17 73 13 -18 19 -51 21 -124z m-256 -78 c8 -15 12 -66 11 -144 -1
-156 -5 -163 -170 -306 -80 -68 -119 -98 -130 -98 -5 0 -14 30 -19 68 -10 72
1 132 23 132 7 0 13 7 13 15 0 8 -4 15 -10 15 -5 0 -10 9 -10 20 0 11 5 20 10
20 13 0 13 33 -1 47 -37 37 132 224 218 239 15 3 30 7 32 10 10 9 21 3 33 -18z
m151 -10 c28 -20 32 -40 21 -96 -4 -19 -14 -32 -27 -36 -24 -6 -50 12 -43 30
3 7 0 14 -6 16 -11 4 -21 94 -12 109 6 10 31 2 67 -23z m-1504 -64 c-16 -45
-10 -174 12 -234 11 -30 29 -82 41 -115 11 -33 25 -64 29 -69 12 -13 12 -56 0
-56 -5 0 -23 16 -39 35 -32 36 -98 216 -88 241 3 7 -4 43 -14 80 -11 37 -16
72 -13 78 45 76 55 87 68 76 10 -8 11 -18 4 -36z m940 -30 c6 -15 9 -29 6 -33
-8 -7 -35 28 -35 46 0 22 16 15 29 -13z m-1043 -175 c8 -30 19 -73 24 -96 5
-23 18 -60 30 -82 24 -48 25 -64 4 -59 -18 3 -60 96 -75 166 -20 90 -21 102
-15 118 9 23 14 15 32 -47z m1634 -62 c0 -34 -42 -175 -60 -205 -12 -18 -11
-6 10 108 5 27 4 50 -2 57 -6 8 -2 22 13 42 29 40 39 39 39 -2z m-1865 -4 c21
-10 35 -24 35 -35 0 -23 -10 -23 -60 3 -33 17 -38 24 -29 35 14 17 11 17 54
-3z m1621 -118 c-9 -14 -14 -25 -11 -25 7 0 -11 -22 -55 -67 -62 -62 -67 -66
-73 -51 -4 11 -8 11 -27 0 -12 -7 -24 -11 -27 -8 -7 7 105 136 118 136 5 0 21
13 35 30 15 16 31 27 35 24 5 -3 10 1 10 8 1 7 3 5 6 -5 3 -10 -3 -29 -11 -42z
m-1156 -121 c0 -8 -4 -12 -10 -9 -5 3 -10 10 -10 16 0 5 5 9 10 9 6 0 10 -7
10 -16z m0 -105 c0 -18 -19 -8 -69 37 -70 63 -64 76 9 18 33 -26 60 -51 60
-55z m790 -174 c0 -8 -52 -26 -58 -20 -3 2 6 9 19 14 28 11 39 13 39 6z"/>
<path d="M5912 3620 c0 -14 2 -19 5 -12 2 6 2 18 0 25 -3 6 -5 1 -5 -13z"/>
<path d="M3320 3811 c0 -5 8 -11 18 -13 25 -6 53 2 47 13 -8 12 -65 12 -65 0z"/>
<path d="M5043 3802 c-19 -12 1 -32 38 -37 18 -2 35 -9 37 -15 2 -5 10 -10 18
-10 8 0 14 -7 14 -15 0 -8 9 -15 20 -15 25 0 25 5 2 28 -14 14 -109 73 -116
72 0 0 -6 -4 -13 -8z"/>
<path d="M2950 3690 l-25 -8 26 -1 c15 -1 32 -8 39 -16 9 -11 16 -13 24 -5 7
7 4 14 -10 25 -21 16 -20 16 -54 5z"/>
<path d="M5051 3546 c2 -2 21 -13 41 -25 l38 -20 42 20 c24 11 35 17 25 14
-53 -15 -67 -15 -102 -1 -37 16 -52 20 -44 12z"/>
<path d="M7306 3328 c5 -8 2 -9 -9 -5 -19 7 -21 4 -9 -21 5 -9 20 -39 33 -66
42 -88 100 -136 229 -190 63 -27 146 -62 184 -78 38 -17 91 -37 119 -45 28 -8
60 -21 71 -29 12 -7 53 -20 92 -28 39 -8 93 -24 121 -35 28 -11 82 -26 122
-34 64 -14 77 -21 126 -68 30 -29 55 -60 55 -69 0 -9 -13 -34 -29 -56 -30 -41
-29 -68 2 -70 10 -1 19 7 23 22 6 24 24 34 24 12 0 -6 3 -9 6 -5 4 3 22 -5 40
-20 27 -20 37 -23 48 -14 25 21 53 -4 73 -65 14 -45 15 -59 5 -75 -15 -23 2
-96 27 -115 29 -22 -23 -45 -54 -24 -25 18 -64 19 -79 4 -23 -23 -73 -9 -115
32 -19 18 -36 32 -38 30 -12 -12 17 -64 68 -122 32 -37 59 -71 59 -76 0 -5
-16 -6 -35 -2 -19 3 -35 2 -35 -2 0 -13 101 -104 116 -104 8 0 14 -4 14 -10 0
-13 -57 -13 -65 -1 -3 5 -20 13 -38 16 -41 9 -99 39 -116 59 -12 14 -15 14
-28 0 -14 -13 -14 -16 2 -28 12 -8 16 -20 12 -30 -4 -11 1 -25 16 -39 13 -12
28 -30 34 -40 19 -36 129 -140 163 -156 51 -23 87 -52 204 -169 72 -70 121
-110 158 -127 57 -26 130 -66 138 -76 3 -3 15 -12 28 -18 21 -11 23 -11 14 6
-6 10 -22 29 -36 42 -35 33 -33 41 11 41 20 0 33 3 29 8 -4 4 -24 7 -44 7 -33
0 -37 3 -43 32 -3 18 -12 40 -19 48 -19 23 -7 28 68 29 47 1 73 6 84 16 12 13
40 15 151 13 127 -2 194 -13 262 -44 27 -12 137 -43 208 -59 l59 -14 25 32
c20 27 31 32 66 32 23 0 60 -5 81 -11 34 -9 42 -8 67 10 16 12 43 21 64 21 38
0 57 22 36 43 -6 6 -11 33 -11 59 0 35 -6 54 -20 68 -25 25 -16 44 16 36 14
-4 24 -2 24 4 0 5 -7 10 -15 10 -8 0 -15 7 -15 15 0 7 -8 18 -17 24 -13 7 -18
22 -18 52 l0 42 -65 15 c-36 8 -73 21 -83 30 -9 8 -27 20 -40 26 -26 14 -36
56 -13 56 24 0 7 30 -22 41 -18 7 -28 6 -34 -3 -4 -7 -5 2 -1 21 6 32 5 34
-18 28 -13 -4 -32 -7 -41 -7 -12 0 -18 -8 -18 -24 0 -19 -8 -27 -35 -36 -20
-7 -44 -9 -53 -5 -9 4 -37 8 -61 11 -47 4 -71 18 -71 40 0 12 -56 34 -87 34
-7 0 -13 5 -13 10 0 6 -6 10 -12 10 -7 0 -24 9 -38 20 -14 11 -35 20 -47 20
-13 0 -23 4 -23 9 0 4 -12 20 -27 35 -15 15 -28 35 -29 44 -4 26 -29 38 -105
51 -87 14 -138 40 -162 79 -10 18 -31 35 -51 42 -22 7 -36 19 -40 34 -6 25
-72 53 -100 43 -8 -3 -19 0 -25 7 -7 8 -25 16 -41 20 -19 3 -37 17 -50 38 -17
29 -18 35 -5 55 26 40 19 49 -60 72 -48 14 -78 28 -85 41 -27 50 -64 74 -147
96 -7 2 -13 17 -13 33 0 40 -9 43 -64 25 -43 -15 -48 -15 -71 0 -14 9 -25 20
-25 25 0 5 -8 7 -19 4 -10 -3 -22 0 -25 6 -4 6 -16 11 -28 11 -11 0 -22 8 -25
19 -5 21 -29 35 -44 26 -4 -3 -22 1 -38 10 -17 8 -42 15 -57 15 -38 0 -121 41
-135 66 -9 18 -23 22 -78 27 -89 7 -95 9 -191 56 -47 23 -98 41 -113 41 -16 0
-40 9 -54 20 -14 11 -33 20 -42 20 -10 0 -26 7 -37 15 -23 17 -38 19 -28 3z
m1574 -1684 c0 -2 -12 -4 -26 -4 -14 0 -23 4 -20 9 6 8 46 4 46 -5z"/>
<path d="M644 3270 c-27 -11 -37 -35 -20 -49 9 -8 18 -5 33 12 41 46 37 58
-13 37z"/>
<path d="M2040 3083 c0 -5 5 -15 10 -23 8 -12 10 -11 10 8 0 12 -4 22 -10 22
-5 0 -10 -3 -10 -7z"/>
<path d="M6035 2570 c-3 -5 -1 -10 4 -10 6 0 11 5 11 10 0 6 -2 10 -4 10 -3 0
-8 -4 -11 -10z"/>
<path d="M8335 2327 c-4 -10 -5 -21 -1 -24 10 -10 18 4 13 24 -4 17 -4 17 -12
0z"/>
<path d="M8370 2218 c0 -16 5 -28 10 -28 6 0 10 -6 10 -14 0 -7 11 -21 25 -30
14 -9 25 -12 25 -7 0 5 -7 11 -15 15 -8 3 -15 11 -15 18 0 7 -9 27 -20 43
l-20 30 0 -27z"/>
<path d="M10947 1934 c-4 -4 -7 -20 -7 -35 0 -15 -6 -32 -14 -36 -19 -11 -36
-48 -36 -77 0 -14 -5 -26 -11 -26 -8 0 -8 -4 -1 -12 5 -7 13 -24 17 -38 4 -13
14 -30 21 -38 8 -7 17 -25 20 -40 3 -15 10 -36 14 -47 15 -32 40 -141 40 -170
0 -21 -4 -26 -16 -21 -9 3 -17 6 -19 6 -2 0 -26 30 -53 68 -55 76 -141 167
-149 159 -3 -4 14 -63 37 -133 32 -100 40 -137 36 -168 -3 -23 -6 -50 -6 -61
0 -65 -27 -83 -95 -64 -38 11 -40 10 -68 -25 -16 -20 -36 -36 -45 -36 -26 0
-89 -24 -109 -42 -10 -8 -26 -18 -35 -21 -10 -4 -18 -11 -18 -17 0 -9 -21 -20
-126 -66 -38 -17 -51 -31 -56 -64 -2 -16 -14 -30 -32 -39 -25 -12 -35 -11 -82
5 -63 21 -89 9 -82 -37 l4 -27 -95 3 c-53 2 -109 8 -124 14 -46 18 -115 14
-126 -7 -8 -15 -1 -28 34 -68 25 -27 45 -52 45 -56 0 -9 -57 1 -83 14 -12 6
-22 4 -34 -8 -13 -12 -28 -15 -62 -11 -36 4 -57 0 -96 -19 -44 -21 -59 -23
-115 -17 -75 7 -94 23 -167 143 -82 136 -98 161 -140 227 -24 36 -43 69 -43
72 0 4 -23 25 -52 46 -29 22 -65 52 -82 67 -56 51 -43 10 19 -57 34 -38 74
-96 199 -287 71 -109 173 -311 182 -360 7 -45 10 -44 -104 -22 l-83 17 -33
-37 c-19 -20 -38 -36 -42 -36 -5 0 -43 31 -84 70 -75 69 -165 128 -178 115 -4
-4 4 -16 18 -26 96 -76 180 -184 180 -230 0 -14 -115 -59 -152 -59 -8 0 -39
-10 -67 -21 -43 -18 -56 -20 -78 -10 -24 11 -29 9 -54 -18 -15 -17 -37 -31
-48 -31 -11 0 -23 -4 -26 -10 -3 -5 -13 -10 -22 -10 -8 0 -29 -7 -46 -15 -63
-29 -144 -44 -181 -34 -22 6 -43 6 -53 1 -10 -5 -47 -8 -82 -6 -49 3 -74 -1
-110 -17 -59 -27 -225 -37 -303 -19 -72 17 -147 52 -180 83 -23 21 -28 35 -28
71 0 25 4 56 9 70 7 18 6 27 -4 36 -8 7 -14 7 -17 1 -5 -18 -225 -46 -258 -34
-17 6 -33 7 -41 2 -13 -9 -123 -4 -181 7 -16 3 -45 -3 -72 -15 -25 -12 -50
-21 -56 -21 -6 0 -32 -11 -58 -25 -57 -30 -85 -31 -149 -5 -99 41 -152 81
-179 133 -16 29 -21 110 -10 145 11 32 -5 32 -74 0 -60 -28 -68 -29 -105 -17
-64 20 -93 37 -100 59 -11 36 -26 22 -19 -17 17 -95 108 -167 223 -179 57 -6
60 -8 65 -39 7 -34 69 -115 89 -115 7 0 23 -6 37 -13 52 -27 98 -39 200 -50
107 -12 474 -16 609 -7 l73 5 13 -50 c9 -33 24 -59 46 -79 32 -29 33 -29 130
-23 83 5 112 3 191 -17 84 -22 103 -23 203 -15 106 8 186 24 325 67 36 11 119
35 185 55 66 19 152 47 190 62 287 109 452 152 560 144 96 -7 156 -1 245 24
52 14 149 31 215 37 132 12 191 25 310 69 230 85 337 137 445 219 110 84 286
140 407 130 l53 -5 0 549 c0 515 -1 548 -17 549 -47 2 -79 6 -94 13 -8 3 -18
3 -22 0z"/>
<path d="M7773 1878 c-6 -7 -25 -44 -43 -82 -18 -39 -38 -76 -44 -84 -23 -29
-47 -47 -68 -52 -12 -3 -24 -12 -26 -19 -3 -9 0 -11 9 -6 11 6 11 5 2 -5 -9
-10 -17 -9 -38 1 -15 8 -27 17 -26 22 0 4 1 18 1 32 0 16 6 25 15 25 18 0 19
9 1 33 -13 17 -56 24 -56 9 0 -5 -13 -9 -30 -9 -16 0 -30 3 -30 7 0 4 -13 5
-30 2 -21 -3 -30 0 -30 10 0 7 -8 20 -17 29 -10 8 -26 26 -35 39 l-17 25 0
-26 c-1 -15 8 -38 20 -53 11 -14 18 -34 16 -44 -4 -14 -6 -14 -12 6 -4 12 -11
22 -16 22 -5 0 -8 5 -6 11 4 22 -23 20 -31 -2 -6 -15 -11 -18 -16 -11 -4 7
-11 12 -16 12 -6 0 -1 -15 10 -32 14 -23 18 -43 14 -64 -4 -24 1 -42 20 -72
33 -52 40 -56 70 -37 23 15 25 15 31 -4 8 -27 -1 -42 -22 -34 -13 5 -15 2 -10
-12 14 -34 -47 -72 -123 -77 -22 -1 -40 -4 -40 -8 0 -8 -52 -29 -86 -35 -83
-14 -150 -30 -155 -38 -3 -4 -14 -1 -23 8 -16 16 -17 16 -11 -7 5 -19 0 -29
-20 -44 -15 -10 -33 -23 -39 -29 -30 -25 -57 -33 -115 -33 -44 0 -68 -5 -81
-17 -10 -9 -30 -17 -46 -19 -15 -2 -30 -8 -32 -15 -2 -6 -16 -11 -30 -11 -15
0 -33 -4 -41 -9 -21 -14 -71 7 -71 30 0 10 -12 26 -26 36 -21 14 -25 22 -21
48 4 24 0 34 -14 43 -17 11 -24 8 -53 -23 -97 -102 -13 -285 131 -285 22 0 64
7 94 16 60 18 262 95 324 124 127 60 290 125 432 174 108 37 225 88 352 153
180 91 191 98 191 125 0 15 5 28 11 28 16 0 0 108 -22 150 -10 19 -29 48 -42
63 -19 22 -26 25 -34 15z"/>
<path d="M10732 1870 c-11 -18 -9 -24 14 -45 38 -35 54 -32 54 10 0 24 -6 37
-19 45 -28 14 -34 13 -49 -10z"/>
<path d="M6844 1579 c-3 -6 -1 -16 5 -22 8 -8 11 -5 11 11 0 24 -5 28 -16 11z"/>
<path d="M6859 1520 c-1 -11 -2 -25 -3 -32 -1 -6 11 -13 27 -15 32 -4 36 14 8
45 -23 27 -31 28 -32 2z"/>
<path d="M7865 1510 c-7 -11 11 -40 25 -40 4 0 5 11 2 25 -5 26 -16 32 -27 15z"/>
<path d="M8492 1498 c5 -14 127 -98 143 -98 14 0 -37 45 -72 63 -16 9 -35 23
-42 31 -16 19 -34 21 -29 4z"/>
<path d="M6435 1410 c-3 -6 1 -7 9 -4 18 7 21 14 7 14 -6 0 -13 -4 -16 -10z"/>
<path d="M7913 1383 c4 -10 18 -49 31 -88 29 -81 35 -168 11 -159 -11 5 -15
-2 -15 -26 0 -53 -67 -111 -160 -140 -41 -13 -88 -30 -105 -39 -46 -23 -139
-61 -151 -61 -6 0 -17 -7 -24 -15 -7 -8 -16 -13 -20 -10 -4 3 -15 -6 -23 -18
-10 -15 -32 -27 -66 -35 -29 -6 -73 -22 -99 -33 -59 -28 -137 -49 -182 -50
-19 0 -51 -6 -70 -13 -29 -11 -41 -10 -67 1 -30 12 -33 12 -33 -6 0 -16 10
-19 68 -25 121 -12 324 18 510 75 84 26 341 146 458 215 25 15 62 33 82 40 22
8 35 18 33 26 -2 7 -14 56 -26 108 -21 90 -39 138 -55 150 -4 3 -24 31 -44 63
-35 54 -65 77 -53 40z"/>
<path d="M8383 743 c-25 -5 -32 -33 -8 -33 17 0 18 -2 9 -24 -7 -18 -39 -22
-49 -6 -10 17 -27 11 -21 -7 10 -33 -45 -73 -101 -73 -14 0 -57 -16 -94 -35
-38 -19 -77 -35 -88 -35 -10 0 -45 -12 -77 -26 -50 -22 -56 -27 -40 -36 10 -6
55 -13 100 -15 l82 -6 118 57 c66 31 136 70 156 86 21 17 41 30 45 30 9 0 114
74 115 81 0 9 -38 19 -71 19 -15 0 -29 7 -33 15 -3 8 -9 14 -13 14 -4 -1 -18
-4 -30 -6z"/>
<path d="M7800 500 c0 -5 5 -10 10 -10 6 0 10 5 10 10 0 6 -4 10 -10 10 -5 0
-10 -4 -10 -10z"/>
</g>
</svg>
