<svg width="19" height="17" viewBox="0 0 19 17" fill="none" xmlns="http://www.w3.org/2000/svg">
<path d="M2.65089 3.37457C3.85929 3.37457 4.83889 2.61915 4.83889 1.68728C4.83889 0.755423 3.85929 0 2.65089 0C1.44249 0 0.462891 0.755423 0.462891 1.68728C0.462891 2.61915 1.44249 3.37457 2.65089 3.37457Z" fill="white"/>
<path d="M6.80997 7.30971V16.6708H10.579V12.0415C10.579 10.82 10.877 9.63706 12.841 9.63706C14.778 9.63706 14.802 11.0336 14.802 12.1186V16.6715H18.573V11.538C18.573 9.01628 17.869 7.07837 14.047 7.07837C12.212 7.07837 10.982 7.85492 10.479 8.58983H10.428V7.30971H6.80997V7.30971ZM0.667969 7.30971H4.44297V16.6708H0.667969V7.30971Z" fill="white"/>
</svg>
