<svg width="31" height="39" viewBox="0 0 31 39" fill="none" xmlns="http://www.w3.org/2000/svg">
<path d="M15.5 0.6875C11.3989 0.692123 7.46721 2.25091 4.5673 5.02193C1.6674 7.79295 0.0361046 11.5499 0.0312665 15.4688C0.0263546 18.6712 1.12108 21.7868 3.14752 24.3375C3.14752 24.3375 3.56939 24.8683 3.6383 24.9449L15.5 38.3125L27.3674 24.9382C27.4292 24.8669 27.8525 24.3375 27.8525 24.3375L27.8539 24.3335C29.8794 21.7839 30.9736 18.6697 30.9688 15.4688C30.9639 11.5499 29.3326 7.79295 26.4327 5.02193C23.5328 2.25091 19.6011 0.692123 15.5 0.6875ZM15.5 20.8438C14.3875 20.8438 13.3 20.5285 12.3749 19.9379C11.4499 19.3473 10.7289 18.5078 10.3032 17.5257C9.87745 16.5435 9.76606 15.4628 9.9831 14.4201C10.2001 13.3775 10.7359 12.4198 11.5225 11.6681C12.3092 10.9163 13.3115 10.4044 14.4026 10.197C15.4938 9.98963 16.6248 10.0961 17.6526 10.5029C18.6804 10.9097 19.5589 11.5986 20.177 12.4826C20.7951 13.3665 21.125 14.4057 21.125 15.4688C21.1232 16.8937 20.5299 18.2599 19.4754 19.2675C18.4209 20.2751 16.9913 20.842 15.5 20.8438Z" fill="black"/>
</svg>
