<svg width="479" height="207" viewBox="0 0 479 207" fill="none" xmlns="http://www.w3.org/2000/svg">
<path d="M0 20C0 8.95431 8.95431 0 20 0H459C470.046 0 479 8.95431 479 20V76.1196C479 83.6945 474.721 90.6194 467.946 94.0075L251.816 202.091C246.258 204.871 239.723 204.909 234.133 202.194L11.2624 93.9492C4.37339 90.6033 0 83.6173 0 75.9588V20Z" fill="#D60505"/>
<path d="M165.15 103V68.85H172.05V97.15H185.55V103H165.15ZM199.671 103.55C196.838 103.55 194.554 103.083 192.821 102.15C191.121 101.217 189.888 99.7833 189.121 97.85C188.354 95.8833 187.971 93.35 187.971 90.25C187.971 87.25 188.371 84.8167 189.171 82.95C189.971 81.05 191.238 79.65 192.971 78.75C194.704 77.8167 196.938 77.35 199.671 77.35C202.438 77.35 204.671 77.8167 206.371 78.75C208.104 79.65 209.371 81.05 210.171 82.95C211.004 84.8167 211.421 87.25 211.421 90.25C211.421 93.35 211.038 95.8833 210.271 97.85C209.504 99.7833 208.254 101.217 206.521 102.15C204.821 103.083 202.538 103.55 199.671 103.55ZM199.671 98.05C201.071 98.05 202.121 97.8 202.821 97.3C203.521 96.7667 203.988 95.9333 204.221 94.8C204.488 93.6333 204.621 92.1167 204.621 90.25C204.621 88.4167 204.471 86.9667 204.171 85.9C203.871 84.8 203.371 84.0167 202.671 83.55C201.971 83.0833 200.971 82.85 199.671 82.85C198.404 82.85 197.404 83.0833 196.671 83.55C195.971 84.0167 195.471 84.8 195.171 85.9C194.871 86.9667 194.721 88.4167 194.721 90.25C194.721 92.1167 194.838 93.6333 195.071 94.8C195.338 95.9333 195.821 96.7667 196.521 97.3C197.221 97.8 198.271 98.05 199.671 98.05ZM227.021 114.45C224.354 114.45 222.121 114.25 220.321 113.85C218.554 113.45 217.221 112.717 216.321 111.65C215.421 110.617 214.971 109.117 214.971 107.15C214.971 106.283 215.087 105.5 215.321 104.8C215.587 104.133 215.987 103.5 216.521 102.9C217.087 102.3 217.787 101.683 218.621 101.05C218.154 100.717 217.771 100.233 217.471 99.6C217.204 98.9333 217.071 98.2167 217.071 97.45C217.071 97.05 217.304 96.4667 217.771 95.7C218.271 94.9 218.754 94.2 219.221 93.6C218.554 93.3 217.921 92.8667 217.321 92.3C216.721 91.7 216.221 90.9 215.821 89.9C215.454 88.9 215.271 87.6167 215.271 86.05C215.271 82.8833 216.171 80.65 217.971 79.35C219.804 78.0167 222.404 77.35 225.771 77.35C226.637 77.35 227.571 77.4167 228.571 77.55C229.571 77.6833 230.371 77.8167 230.971 77.95L239.121 77.8V82.3L235.321 82.25C235.621 82.65 235.887 83.1667 236.121 83.8C236.387 84.4 236.521 85.15 236.521 86.05C236.521 88.35 236.121 90.1333 235.321 91.4C234.554 92.6667 233.387 93.55 231.821 94.05C230.254 94.5167 228.271 94.75 225.871 94.75C225.604 94.75 225.237 94.7333 224.771 94.7C224.304 94.6333 223.921 94.5833 223.621 94.55C223.487 94.8833 223.354 95.2667 223.221 95.7C223.087 96.1 223.021 96.3833 223.021 96.55C223.021 96.9833 223.154 97.3167 223.421 97.55C223.721 97.7833 224.304 97.95 225.171 98.05C226.071 98.1167 227.421 98.15 229.221 98.15C231.587 98.15 233.471 98.3667 234.871 98.8C236.304 99.2333 237.321 100 237.921 101.1C238.521 102.2 238.821 103.75 238.821 105.75C238.821 108.717 237.771 110.9 235.671 112.3C233.604 113.733 230.721 114.45 227.021 114.45ZM226.671 109.5C228.737 109.5 230.221 109.25 231.121 108.75C232.054 108.283 232.521 107.5 232.521 106.4C232.521 105.533 232.354 104.9 232.021 104.5C231.721 104.1 231.204 103.833 230.471 103.7C229.737 103.6 228.737 103.55 227.471 103.55C227.137 103.55 226.737 103.533 226.271 103.5C225.804 103.5 225.321 103.483 224.821 103.45C224.354 103.45 223.921 103.433 223.521 103.4C223.154 103.367 222.887 103.35 222.721 103.35C221.987 103.85 221.487 104.3 221.221 104.7C220.954 105.133 220.821 105.7 220.821 106.4C220.821 107.167 221.004 107.767 221.371 108.2C221.737 108.667 222.337 109 223.171 109.2C224.037 109.4 225.204 109.5 226.671 109.5ZM225.821 90.05C227.354 90.05 228.437 89.75 229.071 89.15C229.737 88.5167 230.071 87.4833 230.071 86.05C230.071 84.6167 229.737 83.5833 229.071 82.95C228.437 82.3167 227.354 82 225.821 82C224.354 82 223.287 82.3167 222.621 82.95C221.987 83.5833 221.671 84.6167 221.671 86.05C221.671 87.4833 221.987 88.5167 222.621 89.15C223.287 89.75 224.354 90.05 225.821 90.05ZM242.631 103V77.9H249.281V103H242.631ZM242.631 73.9V68.2H249.331V73.9H242.631ZM254.838 103V77.9H261.488V79.5C262.021 79.1667 262.671 78.85 263.438 78.55C264.205 78.2167 265.005 77.9333 265.838 77.7C266.705 77.4667 267.538 77.35 268.338 77.35C270.671 77.35 272.471 77.7667 273.738 78.6C275.038 79.4 275.955 80.7333 276.488 82.6C277.021 84.4333 277.288 86.9 277.288 90V103H270.588V90.35C270.588 88.6167 270.488 87.2333 270.288 86.2C270.088 85.1333 269.705 84.3667 269.138 83.9C268.571 83.4333 267.738 83.2 266.638 83.2C266.038 83.2 265.405 83.2667 264.738 83.4C264.105 83.5 263.488 83.65 262.888 83.85C262.321 84.05 261.855 84.25 261.488 84.45V103H254.838ZM293.763 103V68.85H300.663V103H293.763ZM306.596 103V77.9H313.246V79.5C313.779 79.1667 314.429 78.85 315.196 78.55C315.962 78.2167 316.762 77.9333 317.596 77.7C318.462 77.4667 319.296 77.35 320.096 77.35C322.429 77.35 324.229 77.7667 325.496 78.6C326.796 79.4 327.712 80.7333 328.246 82.6C328.779 84.4333 329.046 86.9 329.046 90V103H322.346V90.35C322.346 88.6167 322.246 87.2333 322.046 86.2C321.846 85.1333 321.462 84.3667 320.896 83.9C320.329 83.4333 319.496 83.2 318.396 83.2C317.796 83.2 317.162 83.2667 316.496 83.4C315.862 83.5 315.246 83.65 314.646 83.85C314.079 84.05 313.612 84.25 313.246 84.45V103H306.596Z" fill="black"/>
</svg>
