<svg width="42" height="34" viewBox="0 0 42 34" fill="none" xmlns="http://www.w3.org/2000/svg">
<path d="M30.8957 0.333496C32.0834 0.33335 33.227 0.784111 34.0952 1.59468C34.9634 2.40525 35.4915 3.51518 35.5728 4.70016L35.5832 5.021V28.4585C35.5827 28.7188 35.6797 28.9699 35.8551 29.1622C36.0304 29.3546 36.2715 29.4743 36.5307 29.4978C36.79 29.5213 37.0486 29.4469 37.2557 29.2893C37.4629 29.1316 37.6035 28.9021 37.6498 28.646L37.6665 28.4585V6.61266C38.7539 6.73424 39.7645 7.23237 40.5232 8.02075C41.2819 8.80914 41.7409 9.83809 41.8207 10.9293L41.8332 11.271V26.896C41.8333 28.6254 41.1716 30.2894 39.9839 31.5465C38.7961 32.8036 37.1724 33.5585 35.4457 33.6564L35.0623 33.6668H6.93734C5.20788 33.6669 3.54394 33.0053 2.28686 31.8175C1.02977 30.6298 0.274835 29.006 0.176921 27.2793L0.166504 26.896V5.021C0.166358 3.83323 0.61712 2.6897 1.42769 1.82151C2.23826 0.953318 3.34819 0.425209 4.53317 0.343913L4.854 0.333496H30.8957ZM15.2665 14.9168H7.97484C7.56044 14.9168 7.16301 15.0814 6.86998 15.3745C6.57696 15.6675 6.41234 16.0649 6.41234 16.4793V23.771C6.41234 24.6335 7.11234 25.3335 7.97484 25.3335H15.2665C15.6809 25.3335 16.0783 25.1689 16.3714 24.8758C16.6644 24.5828 16.829 24.1854 16.829 23.771V16.4793C16.829 16.0649 16.6644 15.6675 16.3714 15.3745C16.0783 15.0814 15.6809 14.9168 15.2665 14.9168ZM27.7748 22.2085H22.5707L22.3582 22.2231C21.966 22.277 21.6089 22.4779 21.3591 22.785C21.1092 23.0921 20.9853 23.4825 21.0123 23.8775C21.0393 24.2725 21.2152 24.6425 21.5044 24.9127C21.7937 25.183 22.1748 25.3334 22.5707 25.3335H27.7748L27.9873 25.3189C28.3795 25.2649 28.7366 25.0641 28.9864 24.757C29.2363 24.4499 29.3602 24.0595 29.3332 23.6645C29.3062 23.2695 29.1303 22.8995 28.8411 22.6293C28.5518 22.359 28.1707 22.2086 27.7748 22.2085ZM13.704 18.0418V22.2085H9.53734V18.0418H13.704ZM27.7707 14.9168L22.5665 14.9272L22.354 14.9397C21.958 14.9899 21.5962 15.1896 21.3428 15.4981C21.0895 15.8065 20.9637 16.2002 20.9915 16.5984C21.0192 16.9966 21.1982 17.3691 21.4919 17.6394C21.7856 17.9098 22.1716 18.0575 22.5707 18.0522L27.7769 18.0418L27.9873 18.0272C28.3797 17.9733 28.7369 17.7723 28.9868 17.465C29.2366 17.1576 29.3604 16.7669 29.3332 16.3718C29.3059 15.9767 29.1296 15.6066 28.8399 15.3365C28.5503 15.0664 28.1688 14.9164 27.7728 14.9168H27.7707ZM27.7728 7.6335H7.97484L7.76234 7.64808C7.37015 7.70204 7.01307 7.90286 6.76324 8.20996C6.51341 8.51705 6.38947 8.90753 6.41645 9.3025C6.44343 9.69746 6.61933 10.0675 6.90861 10.3377C7.19788 10.608 7.57896 10.7584 7.97484 10.7585H27.7748L27.9873 10.746C28.3829 10.6958 28.7443 10.4963 28.9976 10.1884C29.2508 9.88041 29.3768 9.48728 29.3496 9.08949C29.3224 8.69169 29.1442 8.31933 28.8515 8.04864C28.5587 7.77796 28.1735 7.62944 27.7748 7.6335H27.7728Z" fill="black"/>
</svg>
