<svg width="112" height="50" viewBox="0 0 112 50" fill="none" xmlns="http://www.w3.org/2000/svg">
<path d="M82 18H112V40C112 45.5228 107.523 50 102 50H92C86.4772 50 82 45.5228 82 40V18Z" fill="#00003E" fill-opacity="0.35"/>
<rect x="82" width="30" height="30" rx="10" fill="#F40000"/>
<path d="M89.012 19L92.84 10.54H94.1L97.928 19H96.368L95.528 17.044H91.4L90.572 19H89.012ZM93.452 12.208L91.928 15.82H95L93.476 12.208H93.452ZM100.978 18.52V16.084H98.6017V15.028H100.978V12.664H102.082V15.028H104.458V16.084H102.082V18.52H100.978Z" fill="#00003E" fill-opacity="0.35"/>
<path d="M94.3623 42V40.86L97.0983 37.944C97.4663 37.544 97.7303 37.192 97.8903 36.888C98.0503 36.576 98.1303 36.26 98.1303 35.94C98.1303 35.124 97.6383 34.716 96.6543 34.716C95.8863 34.716 95.1783 35.004 94.5303 35.58L94.0143 34.428C94.3503 34.124 94.7703 33.88 95.2743 33.696C95.7783 33.512 96.3023 33.42 96.8463 33.42C97.7503 33.42 98.4423 33.624 98.9223 34.032C99.4103 34.44 99.6543 35.024 99.6543 35.784C99.6543 36.296 99.5303 36.788 99.2823 37.26C99.0423 37.732 98.6623 38.24 98.1423 38.784L96.2823 40.728H99.9783V42H94.3623Z" fill="#F40000"/>
<path d="M41 18H71V40C71 45.5228 66.5228 50 61 50H51C45.4772 50 41 45.5228 41 40V18Z" fill="#00003E" fill-opacity="0.35"/>
<rect x="41" width="30" height="30" rx="10" fill="#F40000"/>
<path d="M52.716 19.12C51.9 19.12 51.184 18.94 50.568 18.58C49.96 18.22 49.488 17.716 49.152 17.068C48.816 16.412 48.648 15.644 48.648 14.764C48.648 13.876 48.816 13.108 49.152 12.46C49.488 11.812 49.96 11.312 50.568 10.96C51.176 10.6 51.892 10.42 52.716 10.42C53.54 10.42 54.256 10.6 54.864 10.96C55.472 11.312 55.944 11.812 56.28 12.46C56.616 13.108 56.784 13.872 56.784 14.752C56.784 15.64 56.616 16.412 56.28 17.068C55.944 17.716 55.472 18.22 54.864 18.58C54.256 18.94 53.54 19.12 52.716 19.12ZM52.716 17.8C53.492 17.8 54.096 17.532 54.528 16.996C54.96 16.46 55.176 15.716 55.176 14.764C55.176 13.804 54.96 13.06 54.528 12.532C54.104 12.004 53.5 11.74 52.716 11.74C51.94 11.74 51.336 12.004 50.904 12.532C50.472 13.06 50.256 13.804 50.256 14.764C50.256 15.716 50.472 16.46 50.904 16.996C51.336 17.532 51.94 17.8 52.716 17.8ZM60.4699 18.52V16.084H58.0939V15.028H60.4699V12.664H61.5739V15.028H63.9499V16.084H61.5739V18.52H60.4699Z" fill="#00003E" fill-opacity="0.35"/>
<path d="M56.0743 42.12C55.5223 42.12 54.9863 42.036 54.4663 41.868C53.9463 41.692 53.5223 41.456 53.1943 41.16L53.6983 39.984C54.4263 40.544 55.2103 40.824 56.0503 40.824C56.5543 40.824 56.9463 40.696 57.2263 40.44C57.5143 40.176 57.6583 39.824 57.6583 39.384C57.6583 38.936 57.5223 38.576 57.2503 38.304C56.9783 38.024 56.6063 37.884 56.1343 37.884C55.4623 37.884 54.9063 38.152 54.4663 38.688H53.4343V33.54H58.6303V34.812H54.9343V37.104C55.3583 36.784 55.8783 36.624 56.4943 36.624C57.0303 36.624 57.4943 36.74 57.8863 36.972C58.2863 37.196 58.5943 37.512 58.8103 37.92C59.0343 38.32 59.1463 38.788 59.1463 39.324C59.1463 39.876 59.0223 40.364 58.7743 40.788C58.5263 41.204 58.1703 41.532 57.7063 41.772C57.2503 42.004 56.7063 42.12 56.0743 42.12Z" fill="#F40000"/>
<path d="M0 18H30V40C30 45.5228 25.5228 50 20 50H10C4.47715 50 0 45.5228 0 40V18Z" fill="#00003E" fill-opacity="0.35"/>
<rect width="30" height="30" rx="10" fill="#F40000"/>
<path d="M7.924 19V10.54H11.62C12.508 10.54 13.196 10.736 13.684 11.128C14.172 11.512 14.416 12.048 14.416 12.736C14.416 13.192 14.3 13.584 14.068 13.912C13.836 14.24 13.516 14.48 13.108 14.632C13.588 14.768 13.96 15.008 14.224 15.352C14.496 15.688 14.632 16.116 14.632 16.636C14.632 17.388 14.376 17.972 13.864 18.388C13.36 18.796 12.656 19 11.752 19H7.924ZM9.4 14.128H11.356C12.404 14.128 12.928 13.724 12.928 12.916C12.928 12.108 12.404 11.704 11.356 11.704H9.4V14.128ZM9.4 17.836H11.56C12.616 17.836 13.144 17.412 13.144 16.564C13.144 15.716 12.616 15.292 11.56 15.292H9.4V17.836ZM18.3097 18.52V16.084H15.9337V15.028H18.3097V12.664H19.4137V15.028H21.7897V16.084H19.4137V18.52H18.3097Z" fill="#00003E" fill-opacity="0.35"/>
<path d="M15.0743 42.12C14.5223 42.12 13.9863 42.036 13.4663 41.868C12.9463 41.692 12.5223 41.456 12.1943 41.16L12.6983 39.984C13.4263 40.544 14.2103 40.824 15.0503 40.824C15.5543 40.824 15.9463 40.696 16.2263 40.44C16.5143 40.176 16.6583 39.824 16.6583 39.384C16.6583 38.936 16.5223 38.576 16.2503 38.304C15.9783 38.024 15.6063 37.884 15.1343 37.884C14.4623 37.884 13.9063 38.152 13.4663 38.688H12.4343V33.54H17.6303V34.812H13.9343V37.104C14.3583 36.784 14.8783 36.624 15.4943 36.624C16.0303 36.624 16.4943 36.74 16.8863 36.972C17.2863 37.196 17.5943 37.512 17.8103 37.92C18.0343 38.32 18.1463 38.788 18.1463 39.324C18.1463 39.876 18.0223 40.364 17.7743 40.788C17.5263 41.204 17.1703 41.532 16.7063 41.772C16.2503 42.004 15.7063 42.12 15.0743 42.12Z" fill="#F40000"/>
</svg>
