<svg width="43" height="46" viewBox="0 0 43 46" fill="none" xmlns="http://www.w3.org/2000/svg">
<path d="M25.6873 19.3125H36.6248V22.4375H25.6873V19.3125ZM25.6873 11.5H42.8748V14.625H25.6873V11.5ZM25.6873 3.6875H42.8748V6.8125H25.6873V3.6875ZM13.1873 45.875H6.93731C6.10927 45.8725 5.31585 45.5425 4.73033 44.957C4.14482 44.3715 3.81478 43.578 3.81231 42.75V31.8125C2.98427 31.81 2.19085 31.48 1.60533 30.8945C1.01982 30.309 0.689784 29.5155 0.687311 28.6875V19.3125C0.675862 18.6938 0.789286 18.0791 1.0208 17.5052C1.25232 16.9313 1.59717 16.41 2.03475 15.9724C2.47232 15.5349 2.99364 15.19 3.56753 14.9585C4.14141 14.727 4.75609 14.6136 5.37481 14.625H14.7498C15.3685 14.6136 15.9832 14.727 16.5571 14.9585C17.131 15.19 17.6523 15.5349 18.0899 15.9724C18.5275 16.41 18.8723 16.9313 19.1038 17.5052C19.3353 18.0791 19.4488 18.6938 19.4373 19.3125V28.6875C19.4348 29.5155 19.1048 30.309 18.5193 30.8945C17.9338 31.48 17.1404 31.81 16.3123 31.8125V42.75C16.3098 43.578 15.9798 44.3715 15.3943 44.957C14.8088 45.5425 14.0154 45.8725 13.1873 45.875ZM5.37481 17.75C5.16635 17.7375 4.95761 17.7693 4.76236 17.8434C4.56711 17.9175 4.38979 18.0322 4.24213 18.1798C4.09446 18.3275 3.97979 18.5048 3.9057 18.7C3.83161 18.8953 3.79978 19.104 3.81231 19.3125V28.6875H6.93731V42.75H13.1873V28.6875H16.3123V19.3125C16.3248 19.104 16.293 18.8953 16.2189 18.7C16.1448 18.5048 16.0302 18.3275 15.8825 18.1798C15.7348 18.0322 15.5575 17.9175 15.3623 17.8434C15.167 17.7693 14.9583 17.7375 14.7498 17.75H5.37481ZM10.0623 13.0625C8.82618 13.0625 7.6178 12.6959 6.59 12.0092C5.56219 11.3224 4.76111 10.3463 4.28806 9.20427C3.81502 8.06224 3.69125 6.80557 3.9324 5.59319C4.17356 4.38081 4.76882 3.26716 5.64289 2.39309C6.51697 1.51901 7.63062 0.923752 8.843 0.682595C10.0554 0.441437 11.312 0.565208 12.4541 1.03826C13.5961 1.5113 14.5722 2.31238 15.259 3.34019C15.9458 4.368 16.3123 5.57637 16.3123 6.8125C16.3074 8.46859 15.6473 10.0554 14.4763 11.2265C13.3052 12.3975 11.7184 13.0576 10.0623 13.0625ZM10.0623 3.6875C9.44425 3.6875 8.84006 3.87078 8.32616 4.21416C7.81225 4.55754 7.41171 5.0456 7.17519 5.61662C6.93866 6.18764 6.87678 6.81597 6.99736 7.42216C7.11794 8.02835 7.41556 8.58517 7.8526 9.02221C8.28964 9.45925 8.84646 9.75688 9.45265 9.87746C10.0588 9.99804 10.6872 9.93615 11.2582 9.69963C11.8292 9.4631 12.3173 9.06256 12.6607 8.54866C13.004 8.03476 13.1873 7.43057 13.1873 6.8125C13.1848 5.98446 12.8548 5.19104 12.2693 4.60553C11.6838 4.02001 10.8904 3.68998 10.0623 3.6875Z" fill="black"/>
</svg>
