<svg width="479" height="212" viewBox="0 0 479 212" fill="none" xmlns="http://www.w3.org/2000/svg">
<path d="M0 25C0 13.9543 8.95431 5 20 5H459C470.046 5 479 13.9543 479 25V81.1195C479 88.6945 474.721 95.6194 467.946 99.0075L251.816 207.091C246.258 209.871 239.723 209.909 234.133 207.194L11.2624 98.9492C4.37339 95.6033 0 88.6173 0 80.9588V25Z" fill="#D60505"/>
<path d="M146.176 83.704C144.555 83.704 142.784 83.5973 140.864 83.384C138.944 83.2133 137.067 83 135.232 82.744C133.44 82.4453 131.904 82.1893 130.624 81.976L131.2 75C132.523 75.1707 134.059 75.3627 135.808 75.576C137.557 75.7467 139.285 75.896 140.992 76.024C142.741 76.152 144.256 76.216 145.536 76.216C147.968 76.216 149.739 75.7467 150.848 74.808C151.957 73.8267 152.512 72.312 152.512 70.264C152.512 69.1547 152.277 68.28 151.808 67.64C151.381 66.9573 150.592 66.424 149.44 66.04C148.288 65.6133 146.688 65.208 144.64 64.824C141.227 64.184 138.453 63.3947 136.32 62.456C134.229 61.5173 132.693 60.1947 131.712 58.488C130.773 56.7813 130.304 54.4987 130.304 51.64C130.304 48.312 130.923 45.7093 132.16 43.832C133.397 41.912 135.168 40.5467 137.472 39.736C139.776 38.9253 142.485 38.52 145.6 38.52C147.008 38.52 148.608 38.6053 150.4 38.776C152.235 38.904 154.027 39.0747 155.776 39.288C157.568 39.5013 159.083 39.736 160.32 39.992L159.936 47.032C158.656 46.8613 157.163 46.712 155.456 46.584C153.792 46.4133 152.128 46.264 150.464 46.136C148.843 46.008 147.456 45.944 146.304 45.944C143.872 45.944 142.08 46.328 140.928 47.096C139.776 47.864 139.2 49.1013 139.2 50.808C139.2 52.088 139.456 53.0693 139.968 53.752C140.48 54.4347 141.333 54.9893 142.528 55.416C143.765 55.8427 145.451 56.2907 147.584 56.76C150.101 57.3147 152.235 57.912 153.984 58.552C155.776 59.192 157.205 59.96 158.272 60.856C159.381 61.752 160.192 62.904 160.704 64.312C161.216 65.72 161.472 67.4907 161.472 69.624C161.472 73.0373 160.853 75.7893 159.616 77.88C158.421 79.928 156.672 81.4213 154.368 82.36C152.107 83.256 149.376 83.704 146.176 83.704ZM167.083 83V50.872H175.595V83H167.083ZM167.083 45.752V38.456H175.659V45.752H167.083ZM196.852 97.656C193.438 97.656 190.58 97.4 188.276 96.888C186.014 96.376 184.308 95.4373 183.156 94.072C182.004 92.7493 181.428 90.8293 181.428 88.312C181.428 87.2027 181.577 86.2 181.876 85.304C182.217 84.4507 182.729 83.64 183.411 82.872C184.137 82.104 185.033 81.3147 186.1 80.504C185.502 80.0773 185.012 79.4587 184.628 78.648C184.286 77.7947 184.116 76.8773 184.116 75.896C184.116 75.384 184.414 74.6373 185.012 73.656C185.652 72.632 186.27 71.736 186.868 70.968C186.014 70.584 185.204 70.0293 184.436 69.304C183.668 68.536 183.028 67.512 182.516 66.232C182.046 64.952 181.812 63.3093 181.812 61.304C181.812 57.2507 182.964 54.392 185.268 52.728C187.614 51.0213 190.942 50.168 195.252 50.168C196.361 50.168 197.556 50.2533 198.836 50.424C200.116 50.5947 201.14 50.7653 201.908 50.936L212.34 50.744V56.504L207.476 56.44C207.86 56.952 208.201 57.6133 208.5 58.424C208.841 59.192 209.012 60.152 209.012 61.304C209.012 64.248 208.5 66.5307 207.476 68.152C206.494 69.7733 205.001 70.904 202.996 71.544C200.99 72.1413 198.452 72.44 195.38 72.44C195.038 72.44 194.569 72.4187 193.972 72.376C193.374 72.2907 192.884 72.2267 192.5 72.184C192.329 72.6107 192.158 73.1013 191.988 73.656C191.817 74.168 191.732 74.5307 191.732 74.744C191.732 75.2987 191.902 75.7253 192.244 76.024C192.628 76.3227 193.374 76.536 194.484 76.664C195.636 76.7493 197.364 76.792 199.668 76.792C202.697 76.792 205.108 77.0693 206.9 77.624C208.734 78.1787 210.036 79.16 210.804 80.568C211.572 81.976 211.956 83.96 211.956 86.52C211.956 90.3173 210.612 93.112 207.924 94.904C205.278 96.7387 201.588 97.656 196.852 97.656ZM196.404 91.32C199.049 91.32 200.948 91 202.1 90.36C203.294 89.7627 203.892 88.76 203.892 87.352C203.892 86.2427 203.678 85.432 203.252 84.92C202.868 84.408 202.206 84.0667 201.268 83.896C200.329 83.768 199.049 83.704 197.428 83.704C197.001 83.704 196.489 83.6827 195.892 83.64C195.294 83.64 194.676 83.6187 194.036 83.576C193.438 83.576 192.884 83.5547 192.372 83.512C191.902 83.4693 191.561 83.448 191.348 83.448C190.409 84.088 189.769 84.664 189.428 85.176C189.086 85.7307 188.916 86.456 188.916 87.352C188.916 88.3333 189.15 89.1013 189.62 89.656C190.089 90.2533 190.857 90.68 191.924 90.936C193.033 91.192 194.526 91.32 196.404 91.32ZM195.316 66.424C197.278 66.424 198.665 66.04 199.476 65.272C200.329 64.4613 200.756 63.1387 200.756 61.304C200.756 59.4693 200.329 58.1467 199.476 57.336C198.665 56.5253 197.278 56.12 195.316 56.12C193.438 56.12 192.073 56.5253 191.22 57.336C190.409 58.1467 190.004 59.4693 190.004 61.304C190.004 63.1387 190.409 64.4613 191.22 65.272C192.073 66.04 193.438 66.424 195.316 66.424ZM216.833 83V50.872H225.345V52.92C226.027 52.4933 226.859 52.088 227.841 51.704C228.822 51.2773 229.846 50.9147 230.913 50.616C232.022 50.3173 233.089 50.168 234.113 50.168C237.099 50.168 239.403 50.7013 241.025 51.768C242.689 52.792 243.862 54.4987 244.545 56.888C245.227 59.2347 245.569 62.392 245.569 66.36V83H236.993V66.808C236.993 64.5893 236.865 62.8187 236.609 61.496C236.353 60.1307 235.862 59.1493 235.137 58.552C234.411 57.9547 233.345 57.656 231.937 57.656C231.169 57.656 230.358 57.7413 229.505 57.912C228.694 58.04 227.905 58.232 227.137 58.488C226.411 58.744 225.814 59 225.345 59.256V83H216.833ZM283.105 83.704C279.521 83.704 276.47 83.2347 273.953 82.296C271.478 81.3573 269.601 79.8 268.321 77.624C267.041 75.4053 266.401 72.4613 266.401 68.792V39.288H275.233V69.112C275.233 71.6293 275.894 73.4427 277.217 74.552C278.582 75.6613 280.545 76.216 283.105 76.216C285.793 76.216 287.82 75.6613 289.185 74.552C290.55 73.4427 291.233 71.6293 291.233 69.112V39.288H300.065V68.664C300.065 72.3333 299.404 75.2773 298.081 77.496C296.801 79.7147 294.902 81.3147 292.385 82.296C289.91 83.2347 286.817 83.704 283.105 83.704ZM307.27 96.504V50.872H315.718L315.782 52.92C316.379 52.536 317.126 52.1307 318.022 51.704C318.961 51.2773 319.963 50.9147 321.03 50.616C322.097 50.3173 323.142 50.168 324.166 50.168C328.475 50.168 331.569 51.5547 333.446 54.328C335.323 57.0587 336.262 61.2187 336.262 66.808C336.262 70.8187 335.793 74.0613 334.854 76.536C333.915 79.0107 332.401 80.824 330.31 81.976C328.262 83.128 325.553 83.704 322.182 83.704C321.115 83.704 319.963 83.6187 318.726 83.448C317.489 83.2773 316.507 83.1067 315.782 82.936V96.504H307.27ZM320.838 76.6C322.545 76.6 323.889 76.2373 324.87 75.512C325.851 74.7867 326.534 73.6987 326.918 72.248C327.345 70.7547 327.558 68.8773 327.558 66.616C327.558 63.1173 327.067 60.7067 326.086 59.384C325.147 58.0187 323.782 57.336 321.99 57.336C321.307 57.336 320.582 57.4213 319.814 57.592C319.046 57.7627 318.299 57.976 317.574 58.232C316.849 58.488 316.251 58.744 315.782 59V76.152C316.294 76.1947 317.019 76.28 317.958 76.408C318.939 76.536 319.899 76.6 320.838 76.6Z" fill="black"/>
<path d="M172.24 135V107.8H183.36C185.173 107.8 186.76 108.027 188.12 108.48C189.48 108.907 190.533 109.627 191.28 110.64C192.027 111.627 192.4 112.96 192.4 114.64C192.4 115.76 192.293 116.707 192.08 117.48C191.893 118.253 191.573 118.92 191.12 119.48C190.693 120.04 190.093 120.56 189.32 121.04C190.12 121.333 190.813 121.72 191.4 122.2C191.987 122.68 192.427 123.333 192.72 124.16C193.013 124.96 193.16 126.013 193.16 127.32C193.16 128.813 192.92 130.053 192.44 131.04C191.96 132.027 191.293 132.813 190.44 133.4C189.587 133.987 188.573 134.4 187.4 134.64C186.253 134.88 185.013 135 183.68 135H172.24ZM178.56 130.44H183.2C184.053 130.44 184.76 130.347 185.32 130.16C185.907 129.947 186.347 129.573 186.64 129.04C186.933 128.507 187.08 127.773 187.08 126.84C187.08 126.12 186.96 125.533 186.72 125.08C186.507 124.627 186.213 124.28 185.84 124.04C185.467 123.8 185.04 123.64 184.56 123.56C184.107 123.453 183.627 123.4 183.12 123.4H178.56V130.44ZM178.56 119.08H183.08C184.307 119.08 185.187 118.787 185.72 118.2C186.253 117.613 186.52 116.733 186.52 115.56C186.52 114.387 186.227 113.547 185.64 113.04C185.053 112.533 184.147 112.28 182.92 112.28H178.56V119.08ZM196.693 135V107.8H215.253V112.96H203.013V118.68H212.853V123.8H203.013V129.8H215.253V135H196.693ZM218.724 135V107.8H225.044V129.72H235.404V135H218.724ZM249.179 135.48C246.273 135.48 243.939 134.973 242.179 133.96C240.446 132.947 239.193 131.4 238.419 129.32C237.646 127.24 237.259 124.627 237.259 121.48C237.259 118.307 237.646 115.68 238.419 113.6C239.193 111.493 240.446 109.92 242.179 108.88C243.939 107.84 246.273 107.32 249.179 107.32C252.086 107.32 254.406 107.84 256.139 108.88C257.873 109.92 259.126 111.493 259.899 113.6C260.673 115.68 261.059 118.307 261.059 121.48C261.059 124.68 260.673 127.32 259.899 129.4C259.126 131.453 257.873 132.987 256.139 134C254.433 134.987 252.113 135.48 249.179 135.48ZM249.179 130.2C250.726 130.2 251.886 129.88 252.659 129.24C253.433 128.6 253.953 127.627 254.219 126.32C254.486 125.013 254.619 123.4 254.619 121.48C254.619 119.56 254.486 117.933 254.219 116.6C253.953 115.267 253.433 114.267 252.659 113.6C251.886 112.907 250.726 112.56 249.179 112.56C247.659 112.56 246.499 112.907 245.699 113.6C244.926 114.267 244.393 115.267 244.099 116.6C243.833 117.907 243.699 119.533 243.699 121.48C243.699 123.373 243.833 124.973 244.099 126.28C244.393 127.587 244.926 128.573 245.699 129.24C246.473 129.88 247.633 130.2 249.179 130.2ZM267.501 135L263.181 107.8H269.541L272.461 128.84H273.341L277.021 108.08H284.021L287.781 128.84H288.701L291.381 107.8H297.781L293.541 135H283.741L280.421 114.4H280.461L277.101 135H267.501Z" fill="black"/>
</svg>
