<svg width="23" height="15" viewBox="0 0 23 15" fill="none" xmlns="http://www.w3.org/2000/svg">
<path d="M7.58797 14.5149C9.27711 14.5231 10.9515 14.2726 12.5142 13.7779C14.0768 13.2832 15.4965 12.5541 16.6909 11.6331C17.8853 10.712 18.8307 9.61717 19.4722 8.41216C20.1137 7.20714 20.4386 5.91589 20.428 4.6133V4.15832C21.3036 3.66361 22.0614 3.0557 22.668 2.36153C21.8435 2.6396 20.9711 2.82403 20.078 2.90905C21.0249 2.47395 21.7354 1.78908 22.078 0.981165C21.1955 1.38945 20.2278 1.67646 19.218 1.82943C18.5379 1.27063 17.638 0.900237 16.6574 0.775564C15.6769 0.650892 14.6704 0.778891 13.7937 1.13976C12.917 1.50062 12.219 2.07424 11.8076 2.77184C11.3962 3.46945 11.2944 4.25217 11.518 4.99888C9.72399 4.93097 7.96868 4.57244 6.36633 3.94664C4.76397 3.32084 3.35051 2.44179 2.21797 1.36674C1.64689 2.13109 1.4738 3.03423 1.73373 3.89329C1.99366 4.75235 2.6672 5.50315 3.61797 5.99366C2.91658 5.9728 2.23142 5.82486 1.61797 5.56182V5.60038C1.61174 6.39916 1.96069 7.17547 2.60667 7.79991C3.25265 8.42436 4.15664 8.85922 5.16797 9.03201C4.51561 9.16732 3.83226 9.1884 3.16797 9.0937C3.46075 9.77493 4.01965 10.3696 4.76801 10.7962C5.51638 11.2229 6.41756 11.4605 7.34797 11.4766C5.75718 12.464 3.78006 13.0076 1.73797 13.0189C1.37992 13.0109 1.02272 12.9877 0.667969 12.9495C2.73492 13.965 5.13717 14.5004 7.58797 14.4918" fill="white"/>
</svg>
